<?xml version="1.0" encoding="UTF-8"?><svg id="Layer_2" xmlns="http://www.w3.org/2000/svg" viewBox="0 0 751.69 932.32"><defs><style>.cls-1{fill:#332a22;}</style></defs><g id="Layer_1-2"><g><path class="cls-1" d="M190.86,752.22c2.37-4.9,1.86-10.31,2.61-15.48,2.14-14.76,4.09-29.56,6.16-44.65-9.99,1.42-19.43,4.21-28.72,7.64-9.1,3.36-18.18,6.77-26.82,11.48-1.07-2.78,.93-2.93,2.08-3.44,16.77-7.44,33.35-15.42,51.58-18.89,.97-.18,2.64-.24,2.77-.7,1.56-5.62,6.49-4.62,10.31-5,4.71-.47,7.58-3.97,11.47-5.65,4.42-1.91,8.75-3.66,10.47-8.82,.52-1.56,2.17-2.36,4.88-2.7-13.52-7.22-25.74-14.47-36.87-23.36-19.43-15.51-35.41-33.68-43.18-57.87-5.64-17.55-6.06-35.24-.64-52.95,.65-2.11,.86-3.94,.15-6.21-14.41-45.87-12.27-91.42,2.73-136.75,1.82-5.49,3.34-11.06,6.57-17.18-3.02,1.44-5.19,2.36-7.25,3.48-15.75,8.5-32.83,11.69-50.41,11.14-27.52-.87-50.92-12.14-70.18-31.44C8.66,324.93-1.96,287.75,.29,246.43c1.91-35.1,14.4-66.46,36.58-93.63,19.24-23.56,42.73-41.7,72.71-49.26,36.65-9.25,70.26-3.54,98.61,23.32,.6,.57,1.24,1.09,2.22,1.94,4.17-8.6,8.49-16.9,13.81-24.6,16.78-24.27,37.33-44.2,65.12-55.47,4.55-1.84,7.37-4.29,8.76-8.97,.98-3.3,3.16-6.26,4.07-9.58,2.75-10.09,10.23-14.63,19.28-18.14,49.55-19.2,97.41-15.05,143.98,9.69,4.31,2.29,6.57,5.89,8.22,10.1,.84,2.16,1.78,4.44,1.86,6.69,.37,10.03,6.52,14.44,14.91,18.67,33.63,16.96,56.47,44.16,71.42,78.35,1.86,4.25,3.57,8.56,5.41,12.97,15.76-13.45,34.05-20.11,54.5-20.64,24.26-.64,45.79,7.85,65.25,21.5,27.59,19.35,44.82,46.32,55.36,77.97,11.68,35.06,13.15,70.2,.06,105.1-13.82,36.84-39.12,61.7-78.25,70.53-19.2,4.33-37.98,1.82-55.9-6.48-1.95-.9-3.85-1.89-6.51-3.2,2.67,9.32,4.91,18.08,6.45,27,5.31,30.63,5.36,61.27,.1,91.9-.31,1.83-.74,3.53,.27,5.3,9.86,17.43,10.09,35.75,4.38,54.34-5.43,17.68-14.27,33.66-25.96,48.01-14.84,18.2-32.29,33.35-52.81,44.88-.68,.38-1.31,.87-2.87,1.91,8,1.55,15.09,1.5,22.1,1.08,3.43-.21,5.15,.91,6.73,3.65,2.37,4.12,3.56,8.59,4.63,13.13,.83,3.52,2.41,5.99,6.52,6.26,2.14,.14,4.39,1.15,5.37,3.21,1.95,4.09,5.51,4.96,9.45,5.91,14.95,3.62,27.58,12.02,40.33,20.13,.14,.09,.02,.57,.02,1.12-7.43-4.12-14.7-8.28-22.11-12.21-5.58-2.96-11.42-5.31-17.66-6.6-5.18-1.07-6.81-.04-7.05,5.27-.72,16.14-1.15,32.21,2.7,48.17,1.62,6.71,1.55,13.82,2.18,20.76,.05,.53-.45,1.12-1.02,2.42-2.76-8.59-2.38-16.91-4.44-24.81-.18,19.65,.49,39.26,2.36,58.9,.31-2.14,.61-4.28,.96-6.72,1.43,3.62,1.01,6.05-.97,9.15-1.02,1.61-1.16,2.47,1.08,.89,.7-.49,1.33,1.13,1.29,2.18-.27,6.59,1.47,12.99,1.76,19.52,.04,.86-.14,1.76,.85,2.04,.98,.28,1.34-.52,1.77-1.29,1.75-3.11,4.7-5.06,7.74-7.02-1.88,2.3-3.78,4.58-5.63,6.91-3.95,4.99-2.65,9.61,3.47,10.74,6,1.11,9.56,4.54,12,9.78,1.09,2.35,2.51,4.55,3.95,7.12-3.92-1.25-6.03-3.6-7.95-6.85-2.95-4.99-8.22-6.81-13.86-7.78,.35,6.33,2.66,12.02,3.31,17.98,.29,2.68,2.42,.68,3.5,2.06,8.94,11.43,20.11,21.27,24.73,36.47-3.62-2.04-5.16-5.45-7.35-8.22-5.26-6.66-9.72-14.19-18.1-17.6-3.66-1.49-5.24-4.24-5.94-7.91-1.7-8.89-3.53-17.75-6.47-26.45,2.55,18.38,5.1,36.75,7.66,55.12-5.72-8.73-6.83-18.55-8.21-28.27-3.38-23.81-6.47-47.67-8.68-71.62-1.76-19.05-2.79-38.18-4.4-57.25-1.47-17.4-1.82-34.89-4.29-52.21-.3-2.1-.44-4.32-1-5.09,0,9.89,.21,20.81-.05,31.73-.46,19.82,2.34,39.6,.55,59.42-1.1,12.2-3,24.39-3.09,36.6-.07,9.72-.38,19.47-.2,29.17,.19,10.44-3.39,18-12.4,23.11-1.29,.73-2.48,1.69-3.6,2.67-2.18,1.89-3.37,3.85,.77,4.55,2.62,.44,3.15,2.09,3.21,4.25,.43,16.1,.32,32.2-.83,48.29v-17.43c-.27-.02-.55-.04-.82-.06-.23,2.27-.45,4.55-.68,6.82-.11,0-.22-.01-.33-.02,0-12.37-.07-24.75,.06-37.12,.03-2.52-.31-3.15-3.15-3.27-13.78-.62-27.55-1.53-41.29-2.68-3.93-.33-4.78,1-4.91,4.59-.54,15.29-1.34,30.56-1.91,42.78,0-7.88-.03-18.8,.01-29.72,.02-4.66,.29-9.33,.22-13.99-.04-3.12,.71-5.05,4.35-4.72,1.04,.1,2.52,.62,3.16-.68,.77-1.56-.71-2.39-1.56-3.33-3.93-4.32-7.69-8.76-10.9-13.65-1.72-2.61-2.23-5.27-1.73-8.49,1.07-6.9,1.55-13.89,2.37-20.83,.29-2.46,.52-5.5,3.5-6.02,4.62-.81,4.38-3.79,4.43-7.28,.09-6.3-1.76-12.49-.93-18.81,.18-1.36-.71-2.09-1.7-2.81-7.04-5.12-19.82-3.41-25.39,3.4-.79,.97-.76,2.14-.99,3.28-1.13,5.55-3.51,10.59-7.86,16.62,.53-4.79,3-8.49,3.06-12.74,.02-1.07,1.85-2.05-.47-3.07-1.77-.78-2.54,.11-3.29,1.07-4.28,5.42-8.68,10.76-12.66,16.4-17.67,25.06-37.82,47.7-63.17,65.31-6.29,4.37-6.33,4.3-12.29-.56-11.24-9.16-20.58-20.18-30.11-31-.7-.8-2.21-1.81-1.02-3.66,2.34,.39,3.2,2.55,4.49,4.06,8.68,10.12,17.75,19.84,27.58,28.88,3.69,3.39,6.1,3.84,10.36,.5,27.29-21.4,50.01-46.76,68-76.41,4.86-8.01,11.01-15.09,17.89-21.39,2.96-2.71,3.96-5.46,3.46-9.17-.22-1.63-.06-3.31-.23-4.96-.42-4.18,1.36-6.68,5.5-7.44,4.16-.77,5.6,2.26,6.81,5.2,1.59,3.83,2.9,7.78,4.26,11.71,1.15,3.31,3.31,3.83,5.53,1.46,6.82-7.28,14.46-14.51,14.99-25.18,.85-17.24,2.97-34.44,2.22-51.75-.09-1.97,.22-3.98-2.54-6.11-.3,5.8-.57,10.91-.84,16.02-.6,11.46-1.63,22.9-3.89,34.13-1.28,6.36-2.91,13.26-11.11,14.79,2.07-2.97,3.93-6.02,5.3-9.41,2.33-5.77,1.03-11.79,1.59-17.67,.71-7.43,4.14-14.58,3.04-22.11-.64-4.4,1.25-10.3-5.15-12.49h.18c-3.87,3.83-2.72,9.13-3.25,13.6-1.3,10.87-1.37,21.9-1.76,32.87-.13,3.64,.74,7.3-1.24,10.79-.85,1.49-1.76,3.57,1.21,4.23-2.96,.27-2.31,3.83-4.72,5.03-1.19-1.77-.86-3.76-.83-5.63,.24-17.23,.56-34.47,.74-51.7,.01-1.25,1.08-3.54-.95-3.74-2.37-.22-2.62,2.29-2.69,4.01-.17,4.76-.06,9.53-.62,14.36-4.16-4.91-2.16-12-6.65-16.57-16.71,22.42-23.27,48.41-24.84,76.13-.58-.15-1.16-.29-1.75-.44v-18.61c-4.07,7.48-8.17,14.69-12.57,21.77,1.33-7.16,4.67-13.52,7.85-19.93,.67-1.34,1.94-2.86,.13-3.85-1.64-.9-1.9,1.16-2.59,2.12-5.38,7.56-10.41,15.38-16.74,22.22-1.04,1.13-1.63,2.89-3.55,2.99,0,0,.05,0,.05,0-.77-2.77,2.47-3.67,2.7-6.38-6.34,2.06-12.05,5.89-18.88,6.49,2.49-3.87,7.03-4.61,10.52-6.76,7.42-4.57,16.36-7.16,19.32-16.71,.55-1.76,5.06-2.68,1.42-5.38-2.98-2.2-4.3,.9-6.22,2.2-6.01,4.07-11.86,8.45-18.2,11.94-5.3,2.92-11.3,4.36-17.43,4.91-1.41,.13-3.05,0-4.12,1.34,0,0,.17-.12,.17-.12-1.6-.96-3.38-.9-5.15-.89-1.79-.4-1.54-5.88-5.04-2.02l.2-.09c-.37-.12-.74-.24-1.12-.35-4.13-2.16-8.95-1.82-13.17-3.66-5.45,1.91-8.96-1.21-11.76-5.06-1.41-1.94-2.69-2.66-5.05-3.1-7.11-1.31-12.04-6.48-17.14-11.05-2.19-1.96-4.04-4.23-7.48-5.68,1.27,7.23,3.3,13.62,5.26,20.04,1.85,6.04,3.61,12.11,5.41,18.16,.14,.48,.06,1.2,.37,1.42,2.91,2.11,1.65,4.6,.4,7.78-6.15-19.45-12.13-38.35-18.31-57.92-3.25,5.17-.98,9.82-.32,14.1,1.46,9.45,2.88,19.04,7.81,27.56,.63,1.09,.09,1.99-.81,2.53-1.56,.94-1.81-.37-2.32-1.43-3.35-6.87-5.63-14.14-7.9-21.4-3.8-12.17-5.48-24.99-10.86-36.69-4.13-8.98-8.76-17.79-16.09-24.59-4.03-3.74-8.89-6.63-13.58-9.58-2.85-1.79-6.28,.67-6.44,4.53-.36,8.66-1.37,17.25-2.82,25.85,0-8.48,.05-16.95-.04-25.43-.02-1.85,.59-4.55-2.17-4.84-3.3-.35-2.87,2.66-3.04,4.63-.78,8.95-1.52,17.9-2.04,26.86-.15,2.65-.67,4.85-2.89,6.44,.43-11.8,1.02-23.6,1.24-35.4,.11-6.09-2.6-8.58-8.23-9.75-3.79-.79-7.77,.08-11.42-1.73-2-.99-3.34,.46-4.63,1.89-.32,.36-.79,2.55-1.87,.72-2.16-3.65-2.65-.56-3.25,.8-1.96,4.41-3.05,9.08-4.08,13.79-9.56,43.54-8.1,87.53-5.55,131.58,.24,4.15,2.39,5.91,6.35,5.99,14.15,.3,28.29,.7,42.44,.93,4.09,.07,6.54-2.23,7-6.31,2.49-22.08,1.08-44.22,.8-66.33-.02-1.36-.31-2.18-1.75-2.3-1.57-.13-1.4,1.13-1.5,2-.31,2.62-.49,5.26-.72,7.9-.58-2.18-.63-4.33-.81-6.46-.09-1.08-.03-2.69-1.86-2.09-7.06,2.33-14.7,2.52-21.45,5.99-2.4,1.23-4.98,2.13-7.48,3.18,1.37-2.64,1.88-5.65,4.91-6.53-.44,.66-.88,1.33-1.38,2.08,1.79,.68,2.85-.7,4-1.34,7.31-4.06,15.04-7.02,22.97-9.6,10.08-3.28,18.3-.74,25.05,7.2,6.12,7.2,10.27,15.51,13.5,24.3,4.35,11.85,9.64,23.29,14.71,34.83,.47,1.08,2.9,2.48,.45,3.59-1.83,.83-2.44-1.37-3.03-2.6-4.95-10.32-9.73-20.71-14.69-31.02-3.22-6.69-6.7-12.98-14.83-15.22-3.28-.9-5.41,.19-6.7,2.25-5.51,8.83-6.45,18.92-7.17,29.01-.1,1.41,.53,2.18,1.87,2.47,4.06,.89,4.95,3.88,5.09,7.49,.21,5.14,.31,10.31,.92,15.42,.89,7.39-1.99,12.91-7.54,17.43-1.42,1.15-2.91,2.34-3.93,3.82-1.48,2.15-3.19,1.78-5.59,1.32,3.93-3.68,7.46-7.05,11.07-10.34,2.39-2.17,3.47-4.68,3.07-7.98-.84-6.95-1.03-13.95-.95-20.94,.02-1.79-.25-3.67-2.4-3.65-2.1,.02-1.73,2.13-1.84,3.5-.36,4.48-.7,8.96-.82,13.44-.11,4.17-1.94,7.28-5.89,8.26-2.86,.7-3.28,2.21-3.31,4.55-.05,3.65-.21,7.29-.3,10.94-.07,2.99-.06,5.71,4.38,5.13,2.9-.38,2.89,2.36,3.11,4.19,.95,8.04,1.62,16.11,1.4,24.23-.41,14.96-1.97,29.88-1.37,44.88-.64,0-1.28,0-1.92,0,0-14.64,.11-29.28-.04-43.92-.08-8.32-.64-16.64-.84-24.96-.05-2.23-.52-3.18-3.05-3.23-5.24-.11-10.47-.7-15.71-1.09,.16-.06,.31-.13,.47-.16,3.9-.73,9.32,1.86,11.38-1.05,1.85-2.61,.14-7.67,.15-11.65,.02-7.56,.06-7.54-7.36-7.62-8.66-.09-17.32-.15-25.98-.37-2.99-.08-4.66,.47-4.26,4.05,.37,3.29,.32,6.67,.08,9.98-.3,4.16,.51,6.92,5.55,6.04-.17,.04-.33,.11-.5,.11-11.73,.19-11.7,.19-11.92,12.07-.14,7.63-.49,15.26-.6,22.9-.1,7.4-.02,14.8-.65,22.2-1.11-13.02-1.36-26.05-1.02-39.09,.09-3.66,.3-7.33,.23-10.98-.09-4.71-.52-9.5,7.37-8.05-5.11-3.34-7.99-8.52-14-9.75-1.97-.4-2.04-3.19-2.14-5.08-.45-8.98-2.41-18.76,1.29-26.7,5.6-12.02,1.98-23.82,2.25-35.62,.26-11.2,1.88-22.25,2.16-33.45,.59-22.98,3.74-45.68,11.4-68.96-7.15,4.76-13.94,7.33-21.17,9.04-2.64,.62-2.7,4.39-3.16,6.91-1.85,10.14-3.5,20.31-5.15,30.49-1.37,8.46-2.62,16.94-3.93,25.41-.26,1.68-.42,3.52-2.97,2.47l.05-.02ZM29.97,213.7c-.36,.33-.71,.67-1.07,1,0,.35,0,.71,0,1.06,.35,.31,.7,.62,1.05,.93,.32,.37,.65,.75,.97,1.12l-.11-.09c.24,.38,.48,.76,.72,1.15-1.14,1.61-2.26,3.18-3.66,4.63-2.32,2.41-3.03,5.15,.68,7.22-1.41-.35-2.82-.7-4.23-1.04-2.41,1.22-5.21,1.73-7.04,3.98-6.71,.18-8.52,2.69-5.51,7.66,.42,.7,.94,1.33,1.41,2-2.52-1.3-2.65,.94-3.05,2.27-.42,1.41,.08,3.23-.62,4.39-4.28,7.05-2.17,14.56-1.4,21.77,.56,5.21,2.01,10.35,2.01,15.68,0,.75,.61,1.51,.94,2.26-.08-.09-.16-.19-.24-.28,2.36,1.05,2.83,3.26,3.72,5.41,1.34,3.24,.91,8.1,6.36,8.23l.07-.14c-1.44,3.17-2.27,5.92,2.85,6.31,1.5,.11,2.92,1.27,4.38,1.95,1.31,1.44,2.07,3.4,3.94,4.28,2.64,1.24,2.78-.25,2.36-2.27,2.37-1.6,3.1,.83,4.08,1.89,4.44,4.83,10.29,7.73,15.43,11.6,1.56,3.16,3.12,6.33,7.63,4.64-1.2,1.49-.51,2.49,.99,2.88,2.21,.57,4.49,.88,7.09,1.37-1.07-4.36-4.08-4.77-7.35-4.76-1.37-3.36-4.69-3.82-7.5-5.02,.36-1.11-1.11-.98-1.24-1.83,1.83-.37,3.39,.58,4.59,1.47,3.74,2.79,7.42,3.79,11.84,1.53,1.14-.58,3.38-.55,4.27,.2,3.79,3.22,8.7,4.55,12.44,7.65,2.15,1.78,3.43,1.07,4.27-.66,1.91-3.93,4.92-3.32,8.2-2.6,2.51,.55,5.08,.82,7.61,1.3,4.38,.83,6.44-1.22,6.76-5.39,.14-1.75,.07-2.99,2.7-2.89,3.06,.11,3.76-4.68,7.31-4.35-.5-1.91-1.22-3.8-1.45-5.74-.23-1.94-.17-3.97,.12-5.9,.83-5.37,3.26-10.01,6.61-14.29,4.04-5.16,4.03-8.31,.59-12.75-.44-.57-.75-1.72-.47-2.29,1.68-3.44-.06-5.91-2.01-8.44-.79-1.02-2.04-10.09-1.72-10.96,2.69-7.38,5.97-14.58,6.92-22.5,.22-1.87,1.62-5.01-.5-5.25-2.53-.28-1.72,3.62-2.97,5.39-.14,.2,.51,.85,.56,1.32,.27,2.67-.72,4.71-3.57,6.45,.51-2.97,3.57-6.11-1.26-7.35h-.1c-1.87-.6-3.74-1.18-5.62-1.77-.16-.53-.32-1.05-.48-1.58h.14c.45,.42-1.46,1.88,.69,1.55-.4,1.13-.8,2.26-1.19,3.39-1.55-1.17-1.24,.67-1.8,1.11l-.12-.16c.68-.33,1.36-.66,2.05-.99-1.84,1.11-2.04,4.95-5.53,3.32,0,0-.25-.01-.25-.01v.19c-.13-1.42-.26-2.83-.39-4.25,0,0,.1,.19,.1,.19,.15-.44,.31-.88,.46-1.32,0,0,0,.24,0,.24,.17-.67,.34-1.35,.5-2.02-.02-.32-.01-.65,.01-.99-.49-.36-.97-.72-1.46-1.08-.17,.19-.37,.37-.58,.52-.3,.11-.6,.22-.91,.33l.21,.04c-4.2-1.71,.08-5.48-1.88-7.74,.21-.56,.43-1.12,.64-1.69-.6-.84-1.2-1.69-1.8-2.53-.44,.55-.87,1.1-1.31,1.65l.05-.17c0,.73,0,1.46,0,2.19l-.07-.16c.59,.48,1.17,.95,1.76,1.43-2.37,.83-3.41,2.32-2.91,4.96,.61,3.19-1.57,4.73-4.05,5.89-.96,.45-2.46-.02-2.67,1.65-.8-.48-1.6-.96-2.41-1.44,0,0-.1,0-.1,0-.19,.4-.39,.81-.58,1.21l-.16-.1-.06,2.59v-.18c.67,.7,1.36,1.37,2.46,.9l-1.6,2.58-.05-.09c-3.22-.24-4.51,.86-2.37,3.81,.72,.99,1,1.79,.17,2.56-.87,.8-2.05,.37-2.66-.36-2.42-2.88-5.2-5.9-4.85-9.84,.34-3.85-1.53-6.17-3.84-8.56l.06,.19c-.35-.52-.69-1.04-1.04-1.55,.09-.58,.18-1.16,.27-1.74,.37,.08,.75,.17,1.12,.25,.03-.13,.12-.3,.07-.37-.35-.54-.71-.3-1.05,.03-.09-.45-.17-.91-.26-1.36l.1,.13c-1.13-3.62-.47-8.47-6.88-9.35,2.12,2.92,1.62,5.43,.52,7.91,.43-1.23,.23-2.5-.96-2.88-.7-.22-2.33,.41-2.5,.98-.93,2.98-4.12,4.65-4.42,7.92,.05-3.11-2.78-3.43-4.6-4.73l.14,.11c-.56,.37-1.12,.75-1.68,1.12l.21-.14c-.74,.37-1.48,.75-2.22,1.12l.17-.13c-.54,0-1.09,.02-1.63,.02,0,0-.24,.02-.24,.02-.62,1.46-1.24,2.91-1.87,4.37l.11,.04c-.55-1.34-2-.96-2.95-1.53l.07,.07c-.54,.54-1.09,1.08-1.63,1.63l.02-.14c-1.8,1.41-2.79,4.42-6,3.02l.08,.15c-.79-.68-1.59-1.36-2.38-2.04l.05,.12c-1.82-1.32-2.05,.32-2.58,1.4-.41,0-.81-.02-1.22-.02-2.48-2.68-4.97-5.3-8.66-1.74,1.69-1.98,2.34-3.82-.68-5.19,.9-1.16,2.66-2.43,2.54-3.47-.32-2.72,3.86-5.52-.11-8.07l.09,.17c.02-.4-.17-.59-.57-.57,.22-.59,.44-1.17,.66-1.76,0,0-.12,.18-.12,.18-.04-.55-.08-1.11-.12-1.66,1.25,.28,1.61-.72,2.13-1.48v.12c-.55-.54-1.09-1.08-1.63-1.62-.53,.29-1.07,.58-1.6,.88-.25,.07-.5,.12-.76,.15Zm620.98,46.1c-.38,.46-.76,.91-1.14,1.37l-.04,.11-.07,.35-.35-.06h.16c-1.49,1.4-3.23,2.6-3.84,4.72v-.16c.74,1.5-.08,3.78,2.23,4.5,.36,1.05,.71,2.1,1.07,3.15-3.43-.95-5.05,.06-4.14,3.82l-.09-.25c.59,2.54-2.37,4.28-1.55,6.87-.47-.13-.94-.36-1.41-.36-1.16-.02-1.89-2.72-3.52-.36-1.27,1.84,.75,2.13,1.11,3.14,.45,1.24,1.49,2.13,2.96,2.23-1.99,1.29-.54,2.31,.07,3.66,1.41,3.15,4.67,6.35,3.7,9.48-1.12,3.6-.05,6.46,.46,9.6,.38,2.33,.6,4.58-.05,6.9-3.22,11.44-9.43,21.11-17.79,29.38-1.89,1.87-3.46,3.97-5.29,5.81-2.7,2.73-3.67,4.54-.78,8.18,2.01,2.53,2.48,5.95,6.84,5.21,1.08-.18,.7,1.3,1.13,1.81,.57,.69,1.64,1.44,2.44,1.38,2.06-.14,2.04-.31,2.58,.13,2.15,1.74,11.25,5.32,14.25,5.12,2.74-.18,4.65,1.77,7.42,2.01,4.7,.42,9.14-2.28,13.32-1.12,4.85,1.35,9.28,.87,13.35-1.05,6.44-3.04,14.05,.34,20.07-4.17,.72-.54,1.64-.25,2.21,.5,.61,.81,.24,1.55-.33,2.23-.84,1.02-1.54,2.19-2.53,3.03-18.29,15.56-39.44,22.78-63.43,21.5-4.91-.26-9.81-.74-14.72-1.12,1.17,1.23,2.39,1.71,3.65,2,17.56,4.01,34.84,2.51,51.36-4.23,32.82-13.41,52.43-38.89,62.58-71.95,9.34-30.42,8.47-61.11-1.09-91.34-10.82-34.24-29.58-63.17-60.2-82.99-23.56-15.25-49.21-22.51-77.43-16.15-9.51,2.14-18.34,5.88-25.67,12.56-.93,.85-2.46,1.57-1.33,3.2,1.02,1.49,2.33,.77,3.55,.19,1.5-.71,3.01-1.43,4.49-2.18,10.52-5.27,21.6-8.84,33.34-9.66,30.71-2.13,56.64,9.15,78.71,29.66,15.32,14.23,28.21,30.6,35.68,50.37,5.56,14.73,11.65,29.58,8.97,46.02-.15,.93,.11,1.97,.35,2.92,1.02,3.98-.11,7.16-3.39,9.62-1.05,.79-3.05,2.18-2.93,2.4,2.92,5.48-2.48,2.98-3.92,4.17l.15-.17c-.26,.22-.51,.45-.77,.67,0,0,.17,.02,.17,.02l-2.85-.09h.19s.01-.1,.01-.1c.09-1.05,.17-2.09,.26-3.14v.17c-1.07-3.62-2.82,.28-4.15-.38l.06-.04c.07,.36-.06,.6-.41,.72l-.43,.08c-1.33-2.75-1.56-6.05-5.52-7.17-1.69-.48-2.71,1.17-4.06,.24-5.07-3.5-10.25-3.67-15.91-1.2-1.71,.75-4.35,1.02-5.74-2.02-1.05-2.31-3.55-3.27-6.27-2.76-.21,.71-.42,1.42-.64,2.13-5.02-1.37-3.43-6.09-4.73-9.34-.01-3.46-2.37-2.68-4.43-2.45-.37,.22-.74,.44-1.12,.67-1.14-.05-2.28-.09-3.42-.14-1.77-2.82-3.37-4.16-4.65,.36-.54,1.92-1.47,3.75,.03,5.62v5.55c-2.59-1.86-5.56-2.22-6.86-5h.1c-.75-1-1.49-1.99-2.24-2.98l.13,.12c-.05-.99-.11-1.98-.16-2.98-.17-.15-.29-.36-.38-.63-1.18-.47-2.35-.95-3.53-1.42-1.32,.6-2.64,1.21-3.96,1.81,.03,.55,.06,1.1,.09,1.65ZM183.77,419.72c.72,.54,.82-.3,1.19-.54l.06,.14c-.4-.52-.8-1.04-1.19-1.56-.35-.07-.71-.15-1.06-.22,.67-.79,1.35-1.58,2.02-2.38l.24,.04c-.07,.03-.15,.07-.22,.1-.28-.73-.55-1.46-.83-2.19l-.09,.21c1.94-1.66,2.66-3.88,2.87-6.34,.94,1.26,1.58,.67,2.14-.36,.84-.25,1.68-.5,2.53-.74l-.09-.1c.67-.54,1.33-1.08,2-1.62-.04-.7,.63-1.48-.23-2.09,0,0,.12-.14,.12-.14l2.19-1.13v.16c1.58,1.18,2.2-2.12,3.64-1,1.37,4.14,1.41,9.3,8.04,7.51,2.39-.64,1.44,2.16,2.63,2.82-.29,.29-.58,.58-.87,.87,.02,.74,.04,1.48,.07,2.21,0,0,0-.15,0-.15,.41,.27,.91,.46,1.2,.82,.88,1.12,1.47,3.23,3.15,2.43,1.11-.53,1.09-2.51,1.05-4.09-.09-3.26,.21-6.53,.35-9.8,.88-21.86,6.24-43,10.45-64.31,.66-3.32,0-3.75-3.02-3.15-8.37,1.67-16.36,4.51-24.09,7.99-10.63,4.79-19.83,11.17-25.06,22.33-14.86,31.69-21.77,65.02-21.18,99.94,.13,7.57,.52,15.19,2.63,22.56,.12-2.33-.04-4.63-.22-6.93-1.3-16.87,1.85-33.42,3.8-50.04,.82-7.04,1-15.01,9.76-18.04,.29-.1,.24-.92,1.08-.68,.45,1.16,.74,2.3,.27,3.72-.64,1.94-1.94,4.61,.58,5.68,3.16,1.34,3.57-1.79,4.36-3.88,.2-.54,.55-.74,1.1-.49,.7,5.54,.91,5.62,5.65,2.42,.7-.47,1.44-.8,1.6-1.72-.34,1.34,.69,1.55,1.57,1.89l-.15-.17Zm297.34-139.17c-.25-.22-.5-.44-.75-.65,.08-.1,.16-.21,.23-.31-.03,.1-.05,.21-.08,.31-.87,.47-1.74,.93-2.61,1.4,.01-1.2,.02-2.41,.04-3.61-.12,.08-.29,.08-.49,0-.55,.02-1.1,.05-1.64,.07-1.83-1.56-2.82,0-3.93,1.07-2.06,.31-4.37,1.74-6.07-.27-2.53-3-5.42-1.86-7.9-.66-1.46,.7-2.3,1.38-3.54,.06l.12-2.08-.23-.13,.4,.11c-3.08-.6-6.01,.49-9.01,.79l.2-.05c-3.03-.9-5.92-.81-9.06,.06-2.32,.65-.88,3.65-3.27,3.79-7.88,.47-14.36,6.5-22.58,5.73-.51-.05-1.19,.5-1.61,.94-7.01,7.4-14.68,14.37-16.58,25.16-.17,.96-.74,1.85-1.43,3.52-3.72-9.83-7.63-18.51-14.7-25.46-2.81-2.76-5.06-6.79-8.46-8.12-3.07-1.21-3.8-8.44-9.1-3.92,.69-5.68-4.71-4.3-7.14-6.38-2.44-2.09-4.75,.38-4.91,.71-1.52,3.09-4.34,.85-6.27,1.86-2.51,1.32-.14-2.34-2.78-2.56-9.19-.76-17.88,1.53-26.73,2.96-1.57,.25-3.4,.69-3.31,3-3.67-2.02-6.98-1.55-9.91,1.46-.03-2.19-1.45-1.34-2.41-.99-2.78,1.02-5.58,2.03-8.25,3.29-9.81,4.61-20.27,7.33-28.26,16.1-9.17,10.06-15.77,21.35-21.13,33.45-8.54,19.29-13.21,39.68-14.6,60.75-1.93,29.25,1.02,57.81,12.53,85.09,3.6,8.54,8.6,16.31,13.93,24.19-1.95,.17-2.88-.9-3.94-1.56-9.15-5.6-19.12-8.42-29.79-8.89-29.07-1.27-53.85,20.34-58.24,50.76-4.35,30.17,4.73,56.14,24.94,78.43,22.02,24.3,49.4,40.7,79.55,52.81,9.03,3.63,18.25,6.72,28.11,9.33-1.13-4.35-3.7-7.68-2.93-13.18,4.42,7.5,8.33,13.96,12.07,20.51,9.88,17.32,21.59,33.1,36.74,46.29,33.41,29.08,84.45,27.49,114.61-7.21,12.08-13.9,21.68-29.48,32.06-44.54,2.72-3.95,5.23-8.16,9.78-11.7-1.32,3.31-2.31,5.76-3.49,8.71,3.51-1.25,6.33-2.21,9.12-3.26,38.9-14.69,72.41-36.71,95.7-71.97,13.57-20.54,22.03-42.56,18.12-68.13-4.57-29.87-34.62-50.88-64.21-44.27-8.47,1.89-16.2,5.19-23.51,9.93,5.7-8.83,9.9-18.2,13.29-27.89,13.03-37.3,14.15-75.23,5.51-113.59-5.5-24.41-14.93-46.9-32.38-65.45-1.51-1.6-2.68-2.49-5.01-2.19-1.78,.23-3.47-.59-4.01-2.87-.78-3.28-2.72-6.79-6.14-6.2-3.76,.65-4.89-3.92-8.16-2.8-.51,.17-.81,.97-1.21,1.48v-.1c-.8-.38-1.6-.75-2.4-1.13,.77-.23,.88-.75,.49-1.35-.1-.15-.55-.08-.83-.11,.06,.36,.11,.72,.17,1.08-.91-.54-1.82-1.08-2.74-1.62l.19-.18-.18,.18Zm-80.34,491l.13,.13c-.03-1.1-.46-1.63-1.47-.83-.58,.46-1.5,.73-1.41,1.91,1.94,1.03,3.99,1.62,6.57,1.32-1.02-1.83-2.33-2.32-3.82-2.53ZM20.99,326.42c1.19-1.36,1.46-2.6,.51-4.42-1.72-3.28-2.99-6.79-4.47-10.2-.53-1.22-.51-3.64-2.53-2.58-1.33,.7-.27,2.57,.41,3.95,2.13,4.37,4.09,8.83,6.11,13.26,2.18,2.97,4.33,5.95,6.54,8.89,4.09,5.44,7.27,11.69,13.38,15.37,1.42,3.69,4.84,5.22,8.3,8.07-2.71-5.04-5.11-7.18-8.4-7.96,1.16-1.13,.47-2.1-.35-2.94-5.71-5.85-10.62-12.31-14.81-19.31-1.12-1.87-2.46-2.97-4.7-2.13Zm184.99-33.51c3.19-.61,5.62-2.81,8.53-4.01,29.55-12.18,60.08-21.01,91.63-26.06,17.26-2.76,34.7-4.07,52.2-4.55,5.07-.14,10.13-.54,15.47-.84-.97-2.11-2.56-2.2-3.91-2.26-4.59-.19-9.19-.36-13.79-.25-12.94,.3-25.86,1.34-38.78,1.94-16.53,.77-32.71,4.11-49.12,5.71-7.64,.75-15.03,3.78-22.67,4.71-16.85,2.06-32.71,7.82-48.91,12.29-2.73,.75-6.55,1.44-7.69,4.92-2.08,6.39-3.9,12.87-5.65,19.36-.61,2.26,1.27,.04,1.65,.72-.14,2.47-3.16,4.19-2.12,6.84,2.01,5.09,6.58,7.34,11.31,8.97,3.42,1.18,4.12-2.57,5.85-4.26,2.11-2.05,3.9-4.44,5.78-6.72,2.21-2.68,1.19-4.39-1.9-4.71-3.5-.37-7.05-1.25-10.56,.19-3.47,1.42-5.1,4.33-6.23,8.39-3.4-5.77,.66-8.27,3.51-10.44,4.85-3.69,10.23-6.68,15.38-9.96Zm372.31,33.78c1.95-5.29,1.26-8.69-2.23-9.4-2.47-.5-4.7-1.29-7-2.28-1.42-.61-4.02-1.74-4.64,1.39-.67,3.38,5.55,11.9,9.26,12.87-.64,.17-1.41,.31-1.31,1.17,.11,.98,.87,.69,1.49,.57,5.04-.93,12.16-9.09,11.48-14.3-1.26-9.54-1.08-19.25-3.35-28.67-.35-1.45-.23-3.13-1.89-3.8-6.08-2.48-12.06-6.43-18.33-6.98-13.52-1.19-26.04-6.63-39.68-7.43-17.37-1.03-34.33-5.77-51.52-8.54-10.35-1.67-20.71-2.13-31.02-3.22-16.12-1.72-32.41-2.02-48.64-2.53-5.23-.17-10.64-.88-16.13,.84,1.3,1.8,2.73,1.25,3.95,1.29,38.21,1.21,76.34,3.12,113.56,13,11.6,3.08,23.16,6.01,33.62,12.49,4.82,2.98,11.06,3.58,16.35,5.94,5.2,2.32,10.09,5.34,14.97,8.39,8.34,5.21,15.75,11.37,22.25,18.62,3.54,3.95,2.92,6.91-1.19,10.59Zm-10.03,97.06c-1.63,.55-2.56,1.86-2.17,3.39,1.41,5.49,1.38,11.05,1.45,16.68,.68-5.92,4.66-11.42,1.99-17.71,3.55,2.41,6.15,5.32,5.5,10.05-.1,.76-.31,1.85,.82,1.99,1.13,.14,1.86-.6,1.97-1.76,.08-.83-.01-1.67,.08-2.49,.18-1.63,.15-4.05,1.76-4.26,1.33-.17,3.06,1.42,4.32,2.57,.6,.55,.61,1.84,.72,2.82,.35,3.32,.07,6.83,1.13,9.89,.57,1.64,.38,5.26,2.83,4.88,2.2-.34,.88-3.06,.72-4.93-.12-1.47,.04-2.91-.64-4.3-.39-.79-.57-1.7,.45-2.08,1.14-.43,1.42,.65,1.62,1.39,.66,2.52,1.21,5.06,1.79,7.51,1.63,.26,3.03-3.05,4.28-.5,2.01,4.09,4.1,8.21,5.06,12.75,.38,1.78,.47,4.82,1.36,5.1,3.99,1.24,3.13,4.6,3.88,7.23,.49,1.73,.69,3.54,1.02,5.32,2.08-27.93-.9-55.21-9.07-81.88-3.65-11.92-7.17-23.86-18.45-31.43-3.91-2.62-7.67-5.6-11.93-7.49-5.86-2.59-11.41-5.98-17.79-7.36-3.55-.77-5.72-.46-3.95,4.03,.84,2.15,1.3,4.45,1.97,6.68,5.82,19.25,6.68,39.37,10.43,58.98,.3,1.59,.56,3.99,2.32,3.85,1.92-.16,1.58-2.41,1.47-4.11-.18-2.86-1.1-5.8,.68-9.53,.34,3.11,.61,5.58,1.38,7.26,1.11,2.45-1.73,6.67,3.04,7.47ZM197.88,255.74c-.79,2.98-3.71,2.98-5.8,3.88-16.19,6.9-32.22,14.08-46.53,24.51-7.03,5.12-13.47,10.86-17.4,18.84-4.48,9.1-.41,19.77,8.29,24.96,9.31,5.56,19.53,8.12,29.75,10.8,4.88,1.28,9.93,2.97,15.55,1.56-1.96-2.06-4.25-1.99-6.26-2.52-7.52-1.99-15.11-3.68-22.26-6.87-1.45-.65-3.39-.77-3.22-3.1,.99,.09,2.12-.1,2.94,.31,7.35,3.72,15.48,4.87,23.23,7.26,2.56,.79,4.94,.64,7.61-.41,5.55-2.18,6.9-7.53,10.49-11.55-4.71-1.71-8.78-3.37-11.83-6.54-4.91-5.1-11.13-7.56-17.73-9.19-1.93-.48-1.58-2.07-2.23-3.06-1.52,1.02-2.39,3.7-3.78,3.08-5.08-2.27-7.86,1.9-11.72,3.17-4.91,1.62-4.67,4.61-4.28,8.29-3.91-3.02-3.82-6.55-1.52-10.54,3.49-6.04,8.34-10.76,13.86-14.88,16.01-11.94,34.39-18.8,53.38-23.91,47.78-12.85,96.6-18.64,145.97-19.66,56.7-1.17,113.02,2.85,168.85,13.34,25.58,4.81,50.71,10.89,74.26,22.27,10.24,4.95,19.96,10.77,27.12,19.92,3.43,4.38,6.18,9.21,5.11,15.13-.81,4.45-2.85,8.07-7.45,9.85-.74-1.64,.05-2.16,.5-2.8,2.24-3.26,.59-10.12-3.11-11.04-4.19-1.03-8.9-2.25-12.87-1.3-4.27,1.02-7.59,.19-11.12-1.36-1.62-.71-1.6,.15-2.58,1.17-5.52,5.73-9.27,13.37-17.32,16.44-1.63,.62-3.03,1.55-1.52,3.64,5.86,8.11,4.85,9.35,15.03,7.6,1.05-.18,2.14-.76,3.24,.16-2.34,1.14-4.83,1.23-7.24,1.72-1.21,.25-3.54-.16-3.42,1.87,.11,1.87,1.72,2.38,3.74,2.22,17.43-1.32,33.78-5.9,47.89-16.55,12.41-9.37,13.4-21.56,3.06-33.52-5.47-6.32-11.76-11.75-18.75-16.36-15.6-10.31-32.63-17.79-49.54-25.58-26.9-12.4-54.2-23.63-82.98-30.93-10.51-2.67-21.12-4.98-31.68-7.45,30.43,3.66,59.37,12.88,88.14,24.05-.07-23.09-.82-45.39-2.13-67.68-.5-8.54,4.19-11.65,11.8-7.68,6.92,3.6,13.62,7.61,20.09,12.17,.11-.57,.29-.92,.23-1.21-5.37-22.88-12.8-44.93-25.57-64.93-15.86-24.84-36.51-44.42-63.2-57.13-5.59-2.66-8.35-6.29-9.13-12.07-.26-1.91-.9-3.78-1.37-5.66-.43,.09-.86,.17-1.29,.26-2,60.39,.34,120.61,8.25,180.59-3.7-15.96-4.91-32.23-6.24-48.45-2.92-35.53-4.68-71.12-4.16-106.79,.15-10.15,.5-20.29,.69-30.44,.08-4.44-1.18-8.02-5.85-9.88-3.7-1.47-7.11-3.64-10.72-5.35-45.17-21.45-90.59-22.17-136.39-1.91-5.68,2.51-9.11,6.4-11.13,11.99-1.9,5.28-3.87,10.54-5.84,15.79-.95,2.55-2.45,4.37-5.26,5.35-6.44,2.23-12.48,5.38-18.27,9-32.71,20.44-54.7,49.36-67.68,85.43-4.56,12.68-8.33,25.56-10.55,39.72,1.36-1.08,1.98-1.61,2.63-2.09,9.61-7.11,19.06-14.45,30.29-18.97-.74,1.71-2.55,2.03-3.92,2.84-14.54,8.57-28.06,18.38-38.94,31.46-2.35,2.83-4.54,5.75-5.13,9.5-2.76,17.55-5.04,35.14-6.16,52.88-.21,3.38,.27,4.47,4.02,3.06,5.72-2.15,10.89-5.7,17.04-6.73Zm317.69,425.23c.42,17.14,.67,34.43-.53,51.7-.97,14-2.01,28.06-10.46,40.16-.95,1.37-1.52,2.92-1.75,4.63-2.75,20.33-3.52,40.79-3.95,61.27-.09,4.5,2.23,6.7,6.61,7.06,12.28,1.01,24.55,1.9,36.87,2.32,5.37,.18,7.7-2,8.73-7.14,3.63-18.11,6.94-36.28,8.53-54.67,1.57-18.08,2.79-36.21-.69-54.26-.62-3.2-2.4-5.99-2.22-9.5,.61-12.13-1.86-24.1-2.42-36.19-.17-3.57-1.88-7.39-5.93-6.95-2.49,.27-4.3-.52-6.4-.7-2.96-.26-7.48-.05-8.75,1.77-1.98,2.84-3.93,1.93-6.05,2.02-1.48,.06-2.97-.27-4.45-.29-2.84-.02-4.12,1.13-2.67,4,1.48,2.92,.89,5.29-2.18,7.91-.84-4.81-1.57-8.97-2.3-13.12Zm78.42-413.94c0-2.47,.16-4.12-.02-5.73-1.88-16.87-2.42-33.85-3.73-50.76-.74-9.59-4.7-16.17-11.31-22.19-8.3-7.56-18.11-12.96-27.26-19.28-2.3-1.59-4.72-3.53-7.74-1.67-3.07,1.88-2.98,4.98-2.67,8.02,1.92,18.94,2.19,37.94,1.6,56.92-.23,7.44,.95,11.69,8.81,14.6,14.28,5.28,27.91,12.29,42.33,20.1Zm-53.88,595.17s.09,0,.13,0c0-2.66-.26-5.36,.08-7.97,.3-2.33-.09-3.32-2.63-3.48-9.3-.59-18.59-1.33-27.87-2.09-2.36-.19-3.74,.19-3.84,3.03-.22,6.32-.67,12.63-1.12,18.93-.16,2.19,.31,3.26,2.87,3.39,9.46,.47,18.91,1.17,28.36,1.84,2.02,.14,3.12-.48,3.23-2.68,.18-3.65,.52-7.3,.79-10.95ZM71.33,124.14c2.58,1.12,3.67,.87,5.19,.12,9.89-4.92,19.54-10.28,30.54-12.81,18.43-4.25,36.64-4.15,54.84,.86,13.85,3.81,26.02,10.81,37.02,19.95,.91,.76,1.66,2.45,3.24,1.21,.84-.67,1.07-2.16,.47-2.74-2.05-2.03-2.02-5.18-4.34-7.09-7.22-5.96-14.85-11.27-23.62-14.66-36.99-14.29-70.6-5.5-103.33,15.17Zm505,688.77c.67-2.37,.81-4.12,.76-5.96-.33-11.61-.58-23.23-.81-34.84-.44-21.95-.85-43.9-1.27-65.86-.08-3.98,.24-8.04-2.49-11.44-1.1-1.37-2.47-2.45-4.27-2.03-2.25,.52-1.17,2.48-1.1,3.74,.46,7.9,1.59,15.73,1.7,23.68,.24,18.21,2.12,36.32,3.55,54.46,.99,12.57,1.9,25.15,3.92,38.24Zm-74.41,55.49c.5-.12,1-.24,1.5-.36,0-4.94-.22-9.88,.08-14.8,.17-2.76-.1-4.53-3.08-5.58-2.59-.91-3.51-3.4-3.42-6.1,.17-5.14,.49-10.28,.58-15.42,.03-1.57,1.56-3.91-1.28-4.5-2.82-.59-4.29,.99-4.73,3.77-1.34,8.55-1.9,17.15-1.87,25.79,0,2.28,1.25,4.13,2.61,5.8,3.14,3.85,6.39,7.6,9.6,11.4Zm39.18,2.35c5.07-4.21,9.65-7.93,14.12-11.79,.8-.7,1.54-1.92,1.61-2.94,.65-9.43,1.16-18.87,1.7-28.3,.08-1.31-.45-2.46-1.81-2.51-1.29-.05-1.27,1.31-1.45,2.23-1.1,5.52-2.19,11.05-3.22,16.59-.48,2.56-1.35,5.53-3.81,5.95-5.32,.9-5.7,4.69-6.16,8.6-.44,3.76-.62,7.54-.98,12.17Zm-315.45-15.54c0-5.34,0-9.47,0-13.59,0-1.6-.3-3.04-2.21-3.33-5.93-.89-6.54-5.15-6.44-9.96,.07-3.66,.11-7.33-.14-10.97-.09-1.34,1.34-3.82-1.39-3.9-2.2-.07-2.23,2.34-2.3,3.83-.37,7.47-1.5,14.91-.98,22.41,.12,1.76-.04,3.64,1.59,5.04,3.75,3.21,7.41,6.52,11.88,10.47Zm16.03-574.02c-9.34,2.89-18.61,5.89-28,11.22,3.31,.83,3.99,5.61,8.01,2.51,6.4-4.93,13.1-9.44,19.98-13.73Zm-169.5,51.89c1.47,.57,1.98,.97,2.31,.86,.68-.23,2.46,.13,1.58-1.35-.78-1.32-1.92,.14-3.89,.49Zm19.63-95.92c-.1,.09-.28,.19-.27,.27,.01,.13,.15,.24,.23,.36,.14-.16,.29-.31,.43-.47-.14-.06-.27-.12-.38-.16Z"/><path class="cls-1" d="M177.29,850.91c-7.79,6.5-11.95,15.85-16.27,25.04-1.64-.89,.3-2.23-1.28-2.83-5.33,7.11-10.83,14.19-17.96,19.68-.4-.32-.79-.64-1.19-.96,3.4-4.56,6.34-9.57,10.28-13.6,10.54-10.81,11.52-24.26,11.09-38.06-.11-3.52,1.05-5.82,3.16-8.2,3.82-4.33,9.58-6.44,12.87-11.59,1.12,1.07,2.14,2.05,3.5,3.34,.71-3.65,1.32-6.8,1.94-9.95,.52,.07,1.03,.15,1.55,.22-2.37,30.4-8.61,60.36-11.79,90.68-4.03-18.42,2.88-35.97,4.11-53.77Zm.39-25.55c-12.35,8.12-17.11,18.93-14.07,31.36,11.26-7.33,17.13-17.12,14.07-31.36Z"/><path class="cls-1" d="M629.86,722.29c6.39,2.83,11.64,7.28,17.29,11.05,7.18,4.8,14.08,9.98,21.42,14.58,3.2,2,6.33,5.07,9.03,8.13,.57,.65,1.1,1.38,.17,2.08-.85,.64-1.51,0-2.16-.52-4.89-3.97-9.76-7.98-14.7-11.9-9.6-7.64-19.5-14.86-30.05-21.15-.71-.42-1.46-.8-1.01-2.27Z"/><path class="cls-1" d="M42.76,783.45c4.76-6.24,9.49-12.51,14.32-18.68,.72-.92,1.89-2.5,3.23-1.33,1.35,1.17,1.43,3.36,.2,4.52-5.68,5.38-10.32,11.85-16.64,16.57-.37-.36-.74-.72-1.11-1.07Z"/><path class="cls-1" d="M244.82,764.83c3.36-7.9,6.73-15.8,10.09-23.7,1.27,2.52,.2,4.82-.76,7.08-2.49,5.88-4.8,11.87-9.33,16.61Z"/><path class="cls-1" d="M190.82,752.25c1.12,.68,2.74,1.28,2.57,2.71-.72,6.28-1.67,12.54-3.21,18.74-2.01-7.26,1.92-14.28,.7-21.48-.02,0-.07,.02-.07,.02Z"/><path class="cls-1" d="M368.7,773.68c4.22,1.84,9.04,1.5,13.17,3.66-.34,.49-.68,.98-1.01,1.47,0,.2,0,.4,.01,.59-.13,.37-.38,.52-.77,.45l-.07,.06c.18,.68,.36,1.37,.53,2.05-2.93-2.04-5.84-3.93-9.65-4.23-2.72-.22-2.96-1.11-2.21-4.05Z"/><path class="cls-1" d="M702.92,782.16l-18.28-17.45c7.37,4.37,12.95,10.69,18.28,17.45Z"/><path class="cls-1" d="M185.49,800.42c.58-5.21,1.15-10.42,1.73-15.63,.09-.84,.24-1.74,1.34-1.68,.81,.04,1.04,.77,.95,1.45-.74,5.35-1.51,10.69-2.35,16.02,0,.02-1.16-.15-1.78-.22l.11,.07Z"/><path class="cls-1" d="M423.72,789.14s-.05,0-.05,0c-2.81,5.8-6.62,10.62-12.85,13.03,4.72-3.92,7.46-9.83,12.91-13.03Z"/><path class="cls-1" d="M63.67,758.04c2.25-2.7,3.16-6.66,8.07-8.47-1.91,4.65-4.14,7.36-8.07,8.47Z"/><path class="cls-1" d="M606.48,831.03c-2.75-1.57-.86-3.87-2.01-5.12-1.72-.82-2.37,1.68-4.11,1.05,1.93-1.3,2.82-5.17,5.03-4,2.89,1.52,.97,4.92,1.1,8.07Z"/><path class="cls-1" d="M123.75,721.08c2.17-3.09,5.09-4.81,9.13-4.43-3.04,1.48-6.09,2.95-9.13,4.43Z"/><path class="cls-1" d="M59.39,756.91c-3.05,2.06-6.11,4.13-9.16,6.19,2.05-3.51,5.56-4.99,9.16-6.19Z"/><path class="cls-1" d="M353.44,793.82c2.75,.16,5.5,.32,8.25,.48-2.89,1.5-5.74,1.42-8.25-.48Z"/><path class="cls-1" d="M185.38,800.36c2.1,3.59,1.71,7.4-1.5,10.21,.6-3.7,1.12-6.91,1.62-10.13-.02-.01-.12-.08-.12-.08Z"/><path class="cls-1" d="M393.88,782.74c-1.44,1.01-2.99-.45-4.45,.2,.26-.67-.02-1.07-.63-1.31l.09,.14c1.04-1.55,3.24,1.2,4.08-1.09,0,0-.17,.12-.17,.12,1.92,.04,2.23,2.06,3.54,2.85-.4-1.46-1.08-2.13-2.46-.91Z"/><path class="cls-1" d="M380.87,779.39c0-.2,0-.4-.01-.59,.71-.37,1.42-.74,2.13-1.11,0,0-.2,.09-.2,.09,1.34,0,1.83,.91,2.18,2-.71,.31-1.69,.5-1.27,1.59,.38,.97,1.18,1.51,2.3,1.39-1.54,0-3.08,0-4.62-.01,.46-1.21,.47-2.35-.51-3.35Z"/><path class="cls-1" d="M386.31,782.76c.17-.36,.33-.72,.5-1.08,.7,.03,1.39,.07,2.09,.1,0,0-.09-.14-.09-.14,.26,.43,.52,.87,.77,1.3-1.09-.06-2.18-.12-3.26-.18Z"/><path class="cls-1" d="M393.84,782.63c.37,.74,.75,1.47,1.12,2.21-.37-.74-.75-1.47-1.12-2.21Z"/><path class="cls-1" d="M394.77,784.72c.4-.17,.8-.34,1.19-.52-.4,.17-.8,.34-1.19,.52Z"/><path class="cls-1" d="M24.82,233.15c-1.33,.41-3.57-.1-3.65,1.76-.15,3.56-2.43,6.08-3.82,8.98-1.41,2.96-3.02,.91-4.27-.64,3.54-2.26,2.53-6.5,4.19-9.58,1.83-2.24,4.63-2.76,7.04-3.98,.51,.74,1.02,1.49,1.53,2.24-.34,.47-.69,.94-1.03,1.41v-.18Z"/><path class="cls-1" d="M28.2,311.17c-1.35-.89-2.01-2.15-2.04-3.77-.02-1.03-.04-2.13,1.28-2.29,.91-.11,1.51,.46,1.72,1.42,.67,3.1,2.9,4.97,5.35,6.66,.41,2.01,.27,3.51-2.36,2.27-1.87-.88-2.63-2.84-3.94-4.28Z"/><path class="cls-1" d="M669.89,265.07c-.7-.45-1.4-.9-2.12-1.38-1.52-1.9-.59-3.73-.05-5.65,1.27-4.52,2.87-3.18,4.65-.36,.54,.66,1.07,1.32,1.61,1.98-.72,.87-1.44,1.74-2.15,2.62-.32,.29-.65,.59-.97,.88,0,.52-.02,1.03-.03,1.55l.15-.07c-.36,.14-.72,.28-1.08,.42Z"/><path class="cls-1" d="M681.33,259.61c-.66,2.12-1.29,4.24-.78,7.04-1.92-1.53-3.62-2.17-4.43-3.87,0,0-.05,.16-.05,.16,.75-.3,1.18-.76,.83-1.63-.02-.56-.05-1.11-.07-1.67,.92-.81,.39-1.65,.06-2.49,2.05-.22,4.41-1.01,4.43,2.45Z"/><path class="cls-1" d="M686.7,266.82c1.96,2.87,1.1,4.38-3.02,5.32,0,0,.21,.16,.21,.16h-.23c.79-1.1,1.59-2.21,2.39-3.34,.22-.72,.43-1.43,.65-2.14Z"/><path class="cls-1" d="M58.82,235.82c.06-.36,.12-.73,.18-1.09,0,0-.15,.12-.15,.12,.59-.74,.83-1.48,0-2.21l.14,.13c0-.7-.02-1.4-.03-2.09,0,0-.17,.13-.17,.13,.74-.37,1.48-.75,2.22-1.12,0,0-.21,.14-.21,.14,.56-.37,1.12-.75,1.68-1.12,0,0-.14-.11-.14-.11-.07,1.25-.15,2.5-.22,3.75,0,0-.33-.09-.33-.09l.34-.08c-.72,1.56-1.3,3.24-3.29,3.66Z"/><path class="cls-1" d="M654.82,256.34c1.26,1.17,.55,1.95-.51,2.67,0,0,.03-.37,.03-.37l.13,.37c-.43,.43-.87,.86-1.3,1.28-.46-.18-.91-.37-1.37-.56l-.94-1.59c1.32-.6,2.64-1.21,3.96-1.81Z"/><path class="cls-1" d="M725.31,283.75c.66-.39,1.26-.82,1.16-1.72l.12,.15c.77-.21,1.56-.79,2.27,.13,0,0,0,.1,0,.1s.09,.23,.09,.23c-.84,.4-.78,.79,0,1.17l-.14-.05c-1.18,2.05-2.33-.58-3.5-.01Z"/><path class="cls-1" d="M105.82,226.17s.07,.16,.07,.16c0-.73,0-1.46,0-2.19,0,0-.05,.17-.05,.17,.44-.55,.87-1.1,1.31-1.65,.6,.84,1.2,1.69,1.8,2.53-.3,.54-1,.96-.52,1.73-.32,.3-.64,.61-.96,.91-.55-.55-1.09-1.11-1.64-1.66Z"/><path class="cls-1" d="M209.71,410.3c1.59,.27,2.8,.72,1.22,2.52-.69-.55-1.39-1.1-2.08-1.66,.29-.29,.58-.58,.87-.87Z"/><path class="cls-1" d="M112.48,242.78c.56,.31,1.07,.76,.68,1.39-.42,.69-1,.19-1.5-.08,0,0,.22,.1,.22,.1l-.24,.07-.03-.31s-.29-.11-.29-.11c.22-.39,.43-.78,.65-1.16l.26,.1h.25Z"/><path class="cls-1" d="M33.95,214.29s0-.12,0-.12c-.7,.21-1.41,.41-2.11,.62,0-.66-.35-1.02-1-1.12l-.12-.13c.53-.29,1.07-.58,1.6-.87,.54,.54,1.08,1.08,1.62,1.62Z"/><path class="cls-1" d="M477.94,277.68c.37,1.1-.57,1.51-1.11,2.13,.21-.71,.42-1.42,.62-2.13,.2,.08,.37,.08,.49,0Z"/><path class="cls-1" d="M57.98,232.79c-.82-.47-1.19-1.14-.89-2.09,0,0,.24-.02,.24-.02,.22,.7,.43,1.4,.65,2.11Z"/><path class="cls-1" d="M649.35,261.57c.18,.37,.37,.73,.55,1.1-.24,.02-.47,.05-.71,.07,.11-.39,.22-.78,.32-1.17,0,0-.16,0-.16,0Z"/><path class="cls-1" d="M109.96,234.58c.33,.75,.67,1.5,1,2.24-1.03-.46-1.41-1.15-.79-2.2,0,0-.22-.05-.22-.05Z"/><path class="cls-1" d="M658.73,258.39c-.14,.08-.27,.15-.41,.23-.06-.14-.18-.29-.17-.43,0-.14,.13-.28,.2-.43,.09,.27,.21,.48,.38,.63Z"/><path class="cls-1" d="M658.76,261.24c0,.14,.03,.33-.04,.41-.06,.07-.26,0-.39,0,.19-.1,.37-.2,.57-.29,0,0-.13-.12-.13-.12Z"/><path class="cls-1" d="M208.92,413.38c.7-.24,1.4-.47,2.11-.71-.6,.58-1.28,.86-2.11,.57,0,0,0,.14,0,.14Z"/><path class="cls-1" d="M110.78,236.67c.54,.38,1.07,.76,1.61,1.15,0,0,0-.24,0-.24-.53-.3-1.07-.61-1.61-.91Z"/><path class="cls-1" d="M95.54,238.65c.35,.85-.37,.88-.84,1.11,0,0,.16,.1,.16,.1,.2-.4,.39-.81,.58-1.21h.1Z"/><path class="cls-1" d="M445.64,276.65c.47,.55,.94,1.09,1.4,1.64-.77-.44-1.53-.43-2.28,.03,.36-.57,.72-1.15,1.08-1.72,0,0-.2,.05-.2,.05Z"/><path class="cls-1" d="M644.84,277.6l1.08-.83-.11-.15c.24,.45,.48,.89,.72,1.34-.59-.2-1.18-.4-1.78-.6,0,0,.09,.25,.09,.25Z"/><path class="cls-1" d="M124.46,237.91s-.1,0-.1,0c0,0,.1,0,.1,0Z"/><path class="cls-1" d="M724.97,278.96s.06-.04,.06-.04c0,0-.06,.04-.06,.04Z"/><polygon class="cls-1" points="729.12 279.17 728.87 279.24 729.11 279.35 729.12 279.17"/><path class="cls-1" d="M724.63,279.64c.22,.78-.21,1.25-.77,1.66,.12-.53,.23-1.05,.35-1.58,0,0,.43-.08,.43-.08Z"/><path class="cls-1" d="M731.96,281.98s.15-.17,.15-.17c0,0-.15,.17-.15,.17Z"/><path class="cls-1" d="M43.96,238.76c.11-.58,.31-.98,.95-.45,0,0-.08-.15-.08-.15,.1,.45,.21,.9,.31,1.35-.43-.29-.86-.57-1.3-.86,0,0,.12,.11,.12,.11Z"/><path class="cls-1" d="M728.66,282.42c.55,.39,.62,.84,.15,1.35,0,0,.14,.06,.14,.06,0-.39,0-.78,0-1.17,0,0-.09-.23-.09-.23s-.19,0-.19,0Z"/><polygon class="cls-1" points="731.34 282.48 731.4 282.88 731.51 282.5 731.34 282.48"/><path class="cls-1" d="M111.84,238.71c-.34,.36-.68,.73-1.03,1.09,.37-.3,.75-.6,1.12-.9,0,0-.09-.19-.09-.19Z"/><path class="cls-1" d="M646.99,266.81c-.43-.23-.87-.45-1.31-.68,0,0,0,.16-.01,.15,.64-.35,1.1-.22,1.32,.52Z"/><path class="cls-1" d="M118.26,234.56c.23,.42,.47,.83,.7,1.25-.6-.23-.95-.57-.56-1.25,0,0-.14,0-.14,0Z"/><path class="cls-1" d="M660.89,264.22s.1-.01,.1,0c0,0-.1,0-.1,0Z"/><path class="cls-1" d="M191.42,405.89c.14-.57,.29-1.15,.43-1.72,.49,0,.98,0,1.47,0-.67,.55-1.33,1.08-1.99,1.62l.09,.1Z"/><path class="cls-1" d="M650.96,260.67c-.2,.59-.47,1.04-1.19,.61,0,0,.04-.11,.04-.11,.38-.17,.77-.33,1.15-.5Z"/><path class="cls-1" d="M183.84,418.65c.39,.22,.79,.44,1.18,.67,0,0-.06-.14-.06-.14-.4,.18-.79,.36-1.19,.54,0,0,.15,.17,.15,.17-.03-.41-.05-.83-.08-1.24Z"/><path class="cls-1" d="M51.81,234.69c.05,.38,.1,.76,.15,1.14-.37-.23-.75-.46-1.12-.69,0,0-.02,.14-.02,.14,.38-.17,.75-.34,1.13-.5l-.13-.09Z"/><path class="cls-1" d="M111.45,233.73c.18,.36,.35,.73,.53,1.09-.37-.19-.74-.38-1.11-.57,.21-.15,.4-.33,.58-.52Z"/><path class="cls-1" d="M52.38,233.59c.37,.65,.04,.95-.57,1.1,0,0,.13,.09,.13,.09,.17-.37,.34-.75,.5-1.12l-.07-.07Z"/><path class="cls-1" d="M81.95,233.34s-.06-.19-.06-.19c-.12,.51-.25,1.03-.38,1.55-.24-.34-.48-.68-.72-1.02l.19,.16c-.33-.31-.66-.62-.99-.92,.35-.41,.71-.82,1.06-1.22,.3,.55,.6,1.1,.89,1.65Z"/><path class="cls-1" d="M116.09,240.6s-.13-.16-.13-.16c0,0,.13,.16,.13,.16Z"/><polygon class="cls-1" points="498.29 699.48 498.29 699.75 498.47 699.49 498.29 699.48"/><path class="cls-1" d="M110.82,241.79c.47,.39,.93,.78,1.4,1.17,0,0,0-.19,0-.19,0,0-.26-.1-.26-.1-.39,0-.79,0-1.18,0l.17,.13c0-.39,0-.77,0-1.16l-.13,.15Z"/><polygon class="cls-1" points="94.64 242.34 94.93 242.23 94.63 242.16 94.64 242.34"/><path class="cls-1" d="M32.06,217.14c-.42,.2-.83,.39-1.25,.59,0,0,.11,.09,.11,.09-.03-.4-.06-.81-.09-1.21,.37,.24,.74,.48,1.11,.71l.12-.18Z"/><path class="cls-1" d="M29.95,215.65c-.35,.04-.7,.07-1.05,.11,0-.35,0-.71,0-1.06,.35,.03,.7,.07,1.05,.1,0,0-.12-.13-.12-.13,0,.37-.01,.75-.02,1.12l.14-.14Z"/><path class="cls-1" d="M29.97,213.7c.26-.03,.51-.08,.76-.15,0,0,.12,.13,.12,.13,0,.37-.02,.75-.03,1.12,0,0,.14-.14,.14-.14-.37,0-.75,0-1.12,.01l.12,.13c0-.37,.01-.73,.02-1.1Z"/><polygon class="cls-1" points="380.1 779.84 380.22 780.05 380.03 779.91 380.1 779.84"/><path class="cls-1" d="M387.97,779.67l-1.05,2.14c-1.13-.29-2.06-.77-2.1-2.13,1.05,0,2.09,0,3.14,0Z"/><path class="cls-1" d="M395.57,498.6c16.54,.38,33.33,4.67,47.66,16.37,7.06,5.77,11.89,12.95,13.73,21.95,2.88,6.87,3.84,12.66,3.33,21.21-.18,2.56-2.01,6.77-2.34,7.29-4.32,7.52-7.73,10.85-14.51,16.11-7.78,6.03-16.13,10.46-25.65,13.14-11.58,3.26-23.4,3.14-35.19,3.68-4.33,.2-29.11-9.66-35.92-15.39-16.5-13.88-24.35-30.82-16.8-51.85,4.71-13.12,16.12-19.94,28.17-25.33,11.39-5.1,23.5-7.16,37.52-7.18Zm55.08,37.25c2.29-4.2-1.6-6.14-3.22-8.92,1.39,2.84,.21,6.65,3.34,8.83-1.38,1.51-.42,3.18-.22,4.73,.46,3.54-.18,6.78-1.41,10.14-5.1,13.95-15.71,21.33-29.22,25.82-22.64,7.54-44.83,7.52-66.33-3.56-8.01-4.13-14.95-9.68-17.9-18.87-1.55-4.83-2.02-9.85-2.79-15.61-.54,1.19-.83,1.59-.91,2.03-2.4,14.62,3.9,25.66,14.89,34.27,24.6,19.3,68.74,18.73,93.08-.94,10.19-8.23,14.7-19.03,13.87-32.04-.15-2.34,.1-5.13-3.17-5.89Zm-94.29-4.59c.54,1.25-.71,2.47,.15,3.8,3.31,5.17,7.92,8.64,13.32,11.42,4.55,2.34,9.52,2.65,14.29,3.14,4.86,.5,9.82,1.43,14.86,.22,3.14-.75,4.87-3.58,7.96-4.27,3.87-.87,7.16-2.21,9.49-6.27,1.64-2.85,1.57-6.15,3.6-8.75,1.61-2.07,.88-4.34,.31-6.94-1.04-4.73-5.09-6.01-7.69-8.94-4.11-4.62-8.22-7.41-14.92-7.38-3.83,.02-7.86,1.35-11.73-.13-5.51-2.11-9.97-.6-14.31,3.34-3.51,3.19-6.92,5.51-10.12,9.73-3.85,4.19-4.94,6.69-5.2,11.02Z"/><path class="cls-1" d="M193.36,575.37c5.22-21.97,38.26-35.77,59.41-24.61-4.29-.24-7.47-.62-10.66-.55-3.61,.07-6.66,.85-7.79,5.29-.6,2.36-1.82,6.42-7.12,1.58,19.24,44.04,48.87,75,92.82,90.94,50.84,18.44,101.53,16.48,150.67-5.33,35.55-15.78,59.73-43.7,75.06-79.33,1.29-2.99,.8-5.8,.07-8.66-.47-1.83-1.38-3.04-3.83-2.89-4.24,.25-8.51-.49-13.69,.77,18.82-8.84,50.39,1.3,55.95,20.97-3.4-5.17-7.62-7.31-11.94-9.15-3.99-1.7-7.51-3.21-12.62-1.1-5.73,2.37-6.15,1.3-9.64,3.24-1.59,.89-2.42,2.02-3.14,3.55-6.84,14.53-16.05,27.42-26.15,39.9-6.97,8.6-14.8,16.44-21.45,25.32-2.15,2.87-5.64,4.87-8.3,7.61-7.35,7.61-15.15,15-20.71,23.92-4.1,6.57-9.37,12.17-13.31,18.89-5.99,10.22-11.79,20.65-19.37,29.94-21.26,26.04-65.66,27.19-90.97,4.77-13.38-11.85-21.9-27.06-29.95-42.59-3.44-6.62-6.68-13.38-9.48-20.29-2.75-6.78-7.67-11.61-13.47-15.33-20.63-13.23-37.1-30.65-51.82-49.98-6.52-8.57-10.73-18.43-15.94-27.73-2.13-3.81-2.87-3.95-6.89-1.43-.37,.23-.93,.31-1.38,.25-10.34-1.32-17.83,3.36-24.35,12.02Zm186.49,113.44c-.33-.55-.65-1.11-.98-1.66-.21-.18-.42-.38-.61-.59-2.67-1.56,.49-4.08-.97-5.87-3.98-4.9-9.88-7.28-15.06-10.16-4.12-2.3-9.97-1.51-15.06-2.06-.62-.07-1.64-.16-1.83,.15-2.87,4.68-8.87,3.93-12.77,7.29-1.62,1.39-.42,2.99-1.92,3.67-3.98,1.82-3.99,1.88-1.5,6.25,.43,.76,1.05,1.63,.54,2.27-2.9,3.56-.08,6.27,1.48,8.88,4.45,7.44,9.62,14.35,16.02,20.3,24.35,22.65,72.73,26.83,95.26-12.95,4.23-7.47,3.52-10.19-4-12.76-.15-.05-.18-.44-.25-.64,5.34-7.81,4.55-11.92-2.47-13.1,.4-.27,.75-.53-.09-.6,.11,.2,.22,.41,.33,.61-.74,.15-1.47,.31-2.21,.47-.86-1.13-1.54,.51-2.35,.16h.12c-1.07,.75-2.14,1.51-3.21,2.27-.06,.38-.12,.76-.17,1.14-3.22,2.21-6.45,4.39-9.63,6.65-1.04,.74-1.74,1.68-3.37,1.41-4.11-.66-5.97,1.71-6.52,5.47l-.03-.16-.11,.37,.14,.1c-.39-.73-.78-1.45-1.17-2.18v.25c-2.6,.64-4.68,4.02-6.27,3.89-6.33-.54-12.97-.99-18.2-5.51,0,0-.07,.15-.07,.15,0-.72,0-1.44,0-2.16-.15-.48-.3-.97-.45-1.45-.88,.04-1.75,.07-2.63,.11Z"/><path class="cls-1" d="M475.96,277.63c-.05,.72-.1,1.43-.14,2.15,0,0,.13-.14,.13-.14-.39,.38-.77,.77-1.16,1.15l.13-.15c-1.5,.05-2.56-.58-3.13-1.98,1.39-.34,2.78-.69,4.17-1.03Z"/><path class="cls-1" d="M446.83,281.8c0-.72,0-1.43,0-2.15,.71,.38,1.43,.75,2.14,1.13-.81,0-1.13,.27-.6,1.04-.51,0-1.03-.01-1.54-.02Z"/><path class="cls-1" d="M444.82,281.2c.73,.17,1.45,.33,2.18,.5-.99,.98-1.61,.35-2.18-.5Z"/><path class="cls-1" d="M446,279.7c-.38,.5-.77,1.01-1.15,1.51,0-.68,0-1.37,0-2.06,.38,.18,.76,.36,1.15,.54Z"/><path class="cls-1" d="M448.45,281.79c.13-.38,.26-.75,.39-1.13,.55,.37,1.09,.74,1.64,1.11-.68,0-1.35,.02-2.03,.02Z"/><path class="cls-1" d="M475.82,280.69c-.32,.54-.63,1.08-.95,1.62,.02-.56,.04-1.11,.05-1.67,0,0-.13,.15-.13,.15,.39,0,.78,0,1.17,0l-.14-.1Z"/><path class="cls-1" d="M203.83,253.29c4.22-3.95,9.62-6,14.89-7.43,9.65-2.63,13.41-7.74,12.4-18.04-1.07-10.86-.24-21.91,.59-32.88,0,13.26-.08,26.52,.1,39.78,.02,1.5-1.47,4.79,1.66,4.5,2.45-.23,5.73-.6,5.57-5.26-.73-21.95-.38-43.91,1.55-65.81,.54-6.15-3.91-5.78-7.7-6.46,6.92-2,11.26,1.28,10.91,8.77-.92,19.43-2.27,38.84-1.94,58.31,0,.5,0,1,0,1.5,.05,6,.02,5.9,5.88,3.91,6.39-2.16,12.86-4.1,19.45-5.7-21.5,7.32-42.29,16.43-63.37,24.81Z"/><path class="cls-1" d="M557.39,154.39c-2.39,.32-2.68-1.8-3.2-3.15-3.89-10.02-9.62-19.11-14.39-28.69-.07-.15-.24-.29-.23-.43,.12-1.72-3.04-3.65-.47-4.91,2.86-1.4,2.61,2.32,3.19,3.48,4.83,9.66,11.37,18.48,14.4,29.03,.46,1.6,1.29,3.06,.56,4.76l.13-.09Z"/><path class="cls-1" d="M222.17,131.37c1.69,1.91,.57,3.73-.28,5.46-1.36,2.77-2.89,5.46-4.95,7.98-.11-5.15,1.63-9.68,5.16-13.61,0,0,.07,.17,.07,.17Z"/><path class="cls-1" d="M222.17,131.37s-.07-.17-.07-.17c.29-4.09,2.94-7.19,4.63-10.67,.31-.65,1.45-2.19,2.75-1.18,.95,.74,.31,1.69-.3,2.57-2.23,3.24-2.73,7.74-7.01,9.46Z"/><path class="cls-1" d="M557.25,154.48c1.29,1.31,2.59,2.81,2.16,4.69-.25,1.1,2.31,2.54-.23,3.08-1.42,.3-1.87-1.47-1.95-2.35-.17-1.8-1.75-3.73,.14-5.5,.01,0-.12,.08-.12,.08Z"/><path class="cls-1" d="M676.08,262.94s.05-.16,.05-.16c-.76,.28-1.53,.57-2.29,.85,0,0,.14,.15,.14,.15-.4-.75-.8-1.09-1.18,.01l.1-.16c-.68-.16-1.37-.31-2.05-.47,.32-.29,.65-.59,.97-.88,1.05-.17,2.1-.33,3.15-.5l-.16-.15c.39,.39,.77,.77,1.16,1.16,0,0,.12,.15,.12,.15Z"/><path class="cls-1" d="M652.81,266.8c1.3-.15,2.34,.36,3.18,1.32-.37-.19-.71-.33-.71,.31,.23,0,.46,0,.69-.01-.72,.41-1.44,.82-2.16,1.23,0,0,.14,.14,.14,.14-.34-1.05-.68-2.09-1.02-3.14l-.13,.14Z"/><path class="cls-1" d="M645.92,276.77c.08-1.53,.97-1.41,2.01-.98l-.12-.13c.44,.24,.89,.49,1.33,.73-.91,.52-1.82,1.04-2.73,1.56-.2-.45-.4-.89-.6-1.33,0,0,.11,.15,.11,.15Z"/><path class="cls-1" d="M670.82,264.72c.55,.69,1.09,1.38,1.64,2.07-.86-.38-1.73-.75-2.59-1.13,.72,.05,1.05-.33,1.11-1.01l-.15,.07Z"/><path class="cls-1" d="M651.95,266.79c.32-.88,.64-1.76,.96-2.64-.03,.88-.07,1.77-.1,2.65l.13-.14c-.38,0-.76,0-1.14,0l.15,.12Z"/><path class="cls-1" d="M649.93,273.65c.17,.37,.35,.75,.52,1.12-.55,.01-1.1,.02-1.64,.04,0-.38,.01-.77,.02-1.15,.37,0,.74,0,1.1,0Z"/><path class="cls-1" d="M651.32,274.78c.55-.37,1.1-.73,1.65-1.1-.55,.37-1.1,.73-1.65,1.1Z"/><path class="cls-1" d="M652.84,273.81c.37-.55,.73-1.1,1.1-1.65-.37,.55-.73,1.1-1.1,1.65Z"/><path class="cls-1" d="M647.93,275.79c-.01-.7,.36-1.05,1.03-1.15,.05,.62,.11,1.25,.16,1.87-.44-.29-.88-.57-1.31-.86l.12,.13Z"/><path class="cls-1" d="M653.93,271.31c-.36-.22-.72-.44-1.08-.66l.1,.14c0-.38,0-.76,0-1.15l-.12,.16c.37,0,.75,0,1.12,0,0,0-.14-.14-.14-.14,.04,.55,.08,1.1,.12,1.65Z"/><path class="cls-1" d="M673.91,265.31c-.34-.56-.68-1.12-1.01-1.68,0,0-.1,.16-.1,.16,.39,0,.79,0,1.18-.01,0,0-.14-.15-.14-.15,.02,.56,.05,1.12,.07,1.68Z"/><path class="cls-1" d="M652.91,264.31c-.69-.72-.86-1.44,0-2.16,0,.72,0,1.44,0,2.16Z"/><path class="cls-1" d="M652.92,262.31c-.37-.53-.74-1.06-1.11-1.59,.46-.19,.92-.38,1.37-.56-.09,.72-.17,1.44-.26,2.16Z"/><path class="cls-1" d="M40.84,239.79c1.04-.34,2.09-.69,3.13-1.03,0,0-.12-.11-.12-.11-.1,.31-.2,.63-.29,.93,.02,.04,.04,.09,.05,.14,.02-.09,.04-.18,.06-.28,.5-.02,.99-.03,1.49-.05-.04,1.25-.04,2.5-.87,3.55,0,0,.13-.29,.13-.29l.04,.31c-1.85,.93-3.16-.08-4.44-1.21l-.15,.06c1.88,.05,1.1-1.24,1.09-2.15,0,0-.12,.14-.12,.14Z"/><path class="cls-1" d="M73.88,230.15c.92,.76,1.84,1.53,2.78,2.31,.02,.01,.08,.24,.08,.24l-.16-.37c.97,.36,1.95,.72,2.92,1.09-.05,.55-.1,1.1-.15,1.65-1.68,.52-3.36,.93-4.96-.22,.28-.49,.34-1.1-.34-1.05-.55,.04-.68,.62-.11,1.04-.52-1.56-.84-3.11-.05-4.68Z"/><path class="cls-1" d="M38.89,237.62c.31,.94,.64,.66,.98,.02,.91,.46,.89,1.33,.97,2.16,0,0,.12-.14,.12-.14-.72,.36-1.44,.71-2.15,1.07,0,0,.06-.14,.06-.14-1.58-1.01-.07-1.98,.04-2.96Z"/><path class="cls-1" d="M110.95,239.65c-.04,.71-.09,1.42-.13,2.14,0,0,.13-.15,.13-.15-.39,.39-.78,.77-1.17,1.16l.07-.15c-2.22-1.94-.15-2.32,1.09-3Z"/><path class="cls-1" d="M52.79,236.65c.97,.47,1.98,.91,2.16,2.16-.72-.72-1.44-1.44-2.16-2.16Z"/><path class="cls-1" d="M61.91,242.32c-.38-.9-.75-1.81,.02-2.7,0,.9-.01,1.8-.02,2.7Z"/><path class="cls-1" d="M74.78,240.11c-.06-.13-.12-.26-.18-.39,0,.09,.01,.18,.02,.28l.16,.11Z"/><path class="cls-1" d="M55.95,238.66c.17,.72,.34,1.44,.51,2.16-.55-.72-1.1-1.43-1.65-2.15,.38,0,.76,0,1.14-.01Z"/><path class="cls-1" d="M61.84,239.8c-.17-.38-.35-.76-.52-1.14,.72,.36,1.44,.72,2.16,1.08-.54,.02-1.09,.04-1.63,.05Z"/><path class="cls-1" d="M63.33,239.79c.15-.52,.3-1.04,.45-1.56,.39,.2,.78,.39,1.17,.59l-.14-.08c-.49,.35-.99,.7-1.48,1.05Z"/><path class="cls-1" d="M78.74,241.78h1.44s-.19-.12-.19-.12c-.42,.04-.83,.08-1.25,.12Z"/><path class="cls-1" d="M65.98,237.29c-.39,.48-.77,.96-1.16,1.45,0,0,.14,.08,.14,.08-.04-.39-.08-.78-.12-1.18,.38-.12,.76-.23,1.14-.35Z"/><path class="cls-1" d="M20.91,303.06l.08-.38s-.03,.23-.02,.23-.06,.15-.06,.15Z"/><path class="cls-1" d="M65.96,237.18c-.38-.13-.76-.26-1.14-.39,.01-.55,.03-1.1,.04-1.65,.37,.68,.73,1.36,1.1,2.04Z"/><path class="cls-1" d="M51.8,235.64c.39,.38,.78,.77,1.16,1.15-.39-.38-.78-.77-1.16-1.15Z"/><path class="cls-1" d="M74.62,240c.09,0,.19,0,.28,.01-.05,.03-.09,.06-.13,.09,0,0-.15-.1-.15-.1Z"/><path class="cls-1" d="M80.79,233.67c.22,.36,.45,.72,.67,1.09-.75,.1-1.49,.19-2.24,.28,.05-.55,.11-1.1,.17-1.65,.23-.21,.47-.42,.7-.62,.3,.36,.6,.71,.89,1.07,0,0-.19-.16-.19-.16Z"/><path class="cls-1" d="M25.79,231.75c.05,.85,.09,1.7,.14,2.54-.37-.38-.74-.76-1.11-1.14,0,0,0,.18,0,.18,.32-.53,.65-1.06,.97-1.58Z"/><path class="cls-1" d="M40.02,241.75c-.39-.39-.78-.77-1.16-1.16,0,0-.06,.14-.06,.14,.36,.36,.71,.72,1.07,1.08l.15-.06Z"/><path class="cls-1" d="M110.79,242.67c.22,.37,.45,.75,.67,1.12-.53-.38-1.06-.76-1.6-1.14,0,0-.07,.15-.07,.15,.39,0,.78,0,1.17,0l-.17-.13Z"/><path class="cls-1" d="M73.9,228.14c0,.73,0,1.45,0,2.18,0-.73,0-1.45,0-2.18Z"/><path class="cls-1" d="M80.18,241.78c-.64,.06-1.16,.23-.9,1.06,.24-.39,.47-.78,.71-1.18,0,0,.19,.12,.19,.12Z"/><path class="cls-1" d="M78.86,241.64c.19,.39,.38,.78,.56,1.17-.19-.39-.38-.78-.56-1.17Z"/><path class="cls-1" d="M97.9,242.32c-.22-.73-.57-1.46,.01-2.19,0,.73,0,1.46-.01,2.19Z"/><path class="cls-1" d="M191.21,201.34c1.53,3.87-.51,6.75-.44,9.82,.02,.88-.11,2.28-1.38,2.18-1.13-.09-1.92-1-1.92-2.38,0-3.54,1.67-6.36,3.73-9.61Z"/><path class="cls-1" d="M188.9,403.83c-.69-.37-1.39-.74-2.08-1.12,.88-.04,1.76-.08,2.63-.12-.18,.41-.37,.82-.55,1.23Z"/><path class="cls-1" d="M189.85,403.82c-.18-.38-.36-.75-.53-1.13,.71,0,1.42,0,2.13,0-.53,.38-1.06,.75-1.59,1.12Z"/><path class="cls-1" d="M185.86,404.15c.36,.52,.73,1.04,1.1,1.56-.11,.38-.22,.77-.33,1.15-.25-.9-.51-1.8-.76-2.71Z"/><path class="cls-1" d="M550.53,205.1v23.12c-.1,0-.19,0-.29,0v-23.12c.1,0,.19,0,.29,0Z"/><path class="cls-1" d="M582.21,206.65c-4.47-1.21-1.56-5.19-3.08-7.34,.45-.1,.99-.4,1.32-.25,.55,.25,1.41,1.13,1.37,1.18-1.58,2.16,.94,4.13,.4,6.41Z"/><path class="cls-1" d="M568.31,423.73c.25-.07,.51-.14,.76-.21-.06,.26-.12,.53-.19,.79-.05-.33-.24-.53-.58-.58Z"/><path class="cls-1" d="M56.91,238.84c-.37-.02-.73-.03-1.1-.05,.46-1.63,1.05-3.13,3.14-3.13,.03,.54,.07,1.07,.1,1.61-1.36-.36-1.99,.28-2.14,1.57Z"/><path class="cls-1" d="M60.48,238.71c-.58,.34-1.15,.73-1.71-.03,.57,.01,1.14,.02,1.71,.03Z"/><path class="cls-1" d="M57.81,238.8c.37-.55,.75-1.1,1.12-1.65,.01,.55,.02,1.1,.03,1.65-.38,0-.77,0-1.15,0Z"/><path class="cls-1" d="M64.97,237.78c-.38,.17-.76,.35-1.14,.52,.37-.55,.74-1.11,1.12-1.66,0,.38,.01,.76,.02,1.14Z"/><path class="cls-1" d="M446.96,279.8c-.38,0-.77,0-1.15-.01,.37-.55,.74-1.09,1.11-1.64,.01,.55,.02,1.1,.04,1.65Z"/><path class="cls-1" d="M674.97,261.79c0-.71,0-1.42,0-2.12,0,0-.13,.14-.13,.14,.37,0,.74,0,1.12,0l-.13-.14c.36,.55,.73,1.1,1.09,1.65,.35,.87-.08,1.33-.83,1.63,0,0-.12-.15-.12-.15-.39-.39-.77-.77-1.16-1.16l.16,.15Z"/><path class="cls-1" d="M648.95,267.58c-.92,.23-1.91,.63-2.14-.86,1.39-2.61,2.7-2,3.98,.1l.17-.15c-.98-.17-1.77,.06-2.16,1.08l.15-.16Z"/><path class="cls-1" d="M650.79,266.82c.39,0,.77-.02,1.16-.03,0,0-.15-.12-.15-.12,.34,1.05,.69,2.09,1.03,3.14,0,0,.12-.16,.12-.16-.38,.38-.77,.77-1.15,1.15l.16-.13c-.38,0-.76,0-1.13,0,0,0,.13,.13,.13,.13,0-1.38,0-2.75,0-4.13l-.17,.15Z"/><path class="cls-1" d="M651.96,259.65c0,.39,0,.77,0,1.16-.38,0-.76,0-1.14,0,0-.38,0-.77,0-1.15,.38,0,.76,0,1.14-.01Z"/><path class="cls-1" d="M57.83,232.66c.38,.03,.77,.06,1.15,.1,0,0-.14-.13-.14-.13,0,.74,0,1.48,0,2.21,0,0,.15-.12,.15-.12-1.85,.14-1.41-1.02-1.16-2.06Z"/><path class="cls-1" d="M55.22,235.08l-.25-.19s.33,.2,.35,.22c.02,.02-.09-.02-.09-.02Z"/><path class="cls-1" d="M400.77,771.55c-.06,.26-.12,.53-.17,.79-.76-.63,.11-.48,.31-.66,0,0-.14-.13-.14-.13Z"/><path class="cls-1" d="M726.47,282.03c.1-.02,.21-.04,.31-.06-.06,.07-.11,.14-.18,.21,0,0-.13-.15-.13-.15Z"/><path class="cls-1" d="M186.83,406.79c0-.38,0-.76,0-1.13,.72,.37,1.43,.74,2.15,1.11-.72,0-1.44,.01-2.15,.02Z"/><path class="cls-1" d="M188.79,403.69c.41,0,.81,0,1.22-.01-.41,0-.81,0-1.22,.01Z"/><path class="cls-1" d="M42.53,236.27c.03,.05,.07,.1,.07,.13-.03-.02-.07-.13-.07-.13Z"/><path class="cls-1" d="M475.81,279.78c.39-.03,.77-.07,1.16-.1-.39,.34-.77,.68-1.16,1.01,0,0,.14,.1,.14,.1,0-.39,0-.77-.01-1.16l-.13,.14Z"/><path class="cls-1" d="M648.99,269.82c-.01-.75-.03-1.49-.04-2.24,0,0-.15,.16-.15,.16,.81,.65,.63,1.31,.02,1.97,0,0,.17,.11,.17,.11Z"/><path class="cls-1" d="M648.85,270.67c-.35,.04-.7,.07-1.05,.11,.4-.32,.8-.64,1.19-.96,0,0-.17-.11-.17-.11,0,.36,0,.71,0,1.07l.03-.11Z"/><path class="cls-1" d="M650.98,271.62c-.71-.32-1.42-.63-2.13-.95,0,0-.03,.11-.03,.11,.71,0,1.43,0,2.14,0,0,0-.13-.13-.13-.13,0,.38,0,.76,0,1.14l.15-.18Z"/><path class="cls-1" d="M650.96,272.67c-.39,.38-.77,.76-1.16,1.14,.39-.38,.77-.76,1.16-1.14Z"/><path class="cls-1" d="M651.8,271.68c-.32,.38-.63,.77-.95,1.15,.04-.4,.08-.81,.12-1.21,0,0-.15,.18-.15,.18,.38,0,.76,0,1.14,0l-.16-.11Z"/><path class="cls-1" d="M674.97,259.66c-.39,.04-.78,.07-1.17,.11,.38-.32,.77-.65,1.15-.97,0,0-.12-.15-.12-.15,0,.38,0,.76,0,1.14l.13-.14Z"/><path class="cls-1" d="M675.96,257.63c-.05,.38-.1,.76-.15,1.14,0,0,.14-.1,.14-.1-.37,0-.75,0-1.12,0,0,0,.12,.15,.12,.15,.34-.39,.68-.78,1.02-1.18Z"/><path class="cls-1" d="M676.98,259.79c-.39-.04-.77-.09-1.16-.13,0,0,.13,.14,.13,.14,0-.38,0-.75,0-1.13,0,0-.14,.1-.14,.1,.39,.34,.78,.68,1.17,1.02Z"/><path class="cls-1" d="M183.97,417.67c-.01,.38-.02,.77-.03,1.15-.38-.37-.75-.75-1.13-1.12,.39,0,.78-.02,1.16-.03Z"/><path class="cls-1" d="M111.79,234.67c.39,0,.78,0,1.16,0,0,.39,0,.77,0,1.16-.39-.38-.77-.77-1.16-1.15Z"/><path class="cls-1" d="M30.82,214.8c.38-.04,.76-.09,1.14-.13,0,.37,0,.75,0,1.12-.38-.05-.77-.1-1.15-.15,0,0,.16,.16,.16,.16,0-.38,0-.76,0-1.14l-.14,.14Z"/><path class="cls-1" d="M29.8,216.8c.05-.38,.1-.77,.16-1.15,0,0-.14,.14-.14,.14,.38,0,.76,0,1.14,0,0,0-.16-.15-.16-.16,.05,.38,.11,.77,.16,1.15-.39,0-.78,0-1.16,0Z"/><path class="cls-1" d="M377.85,689.62c-3.34,2.46-6.05-.4-9.1-1.16,3.48,.63,5.74-4.18,9.5-1.91,.2,.21,.4,.41,.61,.59,.03,.55,.06,1.1,.08,1.65-.54-.04-1.09-.08-1.63-.12,.14,.39,.28,.78,.43,1.18l.11-.24Z"/><path class="cls-1" d="M433.74,678.13c1.03,2.35,5.86,2.14,4.99,4.36-1.14,2.88-4.71,.22-7.22,.5-1.21,.14-2.71,.75-3.36-1.09,.06-.41,.11-.79,.17-1.17,.96,1.09,2.07,.01,3.1,.23h-.1c1.32-.5,2.2-1.39,2.42-2.84Z"/><path class="cls-1" d="M377.85,689.62l-.11,.24,.11-.06c.36-.05,.72-.1,1.08-.15,.23,.3,.46,.6,.69,.9,.07-.3,.13-.61,.2-.91,.89-.31,1.78-.63,2.67-.94,.15,.48,.3,.97,.45,1.45-1.25,.71-.73,1.44,0,2.16,0,0,.07-.15,.07-.15-2.47,.68-5.46,2.41-5.13-2.54Z"/><path class="cls-1" d="M408.62,695.42c.38-.16,.76-.32,1.14-.48,.02,.12,.04,.24,.06,.35-.41-.01-.82-.02-1.23-.03,0,0,.03,.16,.03,.16Z"/><path class="cls-1" d="M408.49,695.62c-.15,.22-.3,.44-.45,.67-.33-.74,.32-.46,.6-.57,0,0-.14-.1-.14-.1Z"/><path class="cls-1" d="M431.42,680.96c.04-.83,.08-1.66,.12-2.5,0,0-.12,0-.12,0-.03,.83-.06,1.66-.1,2.5,0,0,.1,0,.1,0Z"/><path class="cls-1" d="M407.46,693.54s-.02,.24-.01,.25c0,0,.01-.25,.01-.25Z"/><path class="cls-1" d="M652.85,270.65c-.35,.34-.7,.69-1.05,1.03,0,0,.16,.11,.16,.11,0-.38,0-.75,0-1.13,0,0-.16,.13-.16,.13,.39,0,.77,0,1.16,0l-.1-.14Z"/><path class="cls-1" d="M56.79,238.69c.4,0,.81,0,1.21,0-.4,.61-.81,.72-1.21,0Z"/><path class="cls-1" d="M58.3,242.68c.3,.11,.52,.32,.64,.61-.14-.29-.35-.49-.64-.61Z"/><polygon class="cls-1" points="416.17 692.15 416.5 692.04 416.46 692.35 416.17 692.15"/><path class="cls-1" d="M377.74,689.86c-.14-.39-.28-.78-.43-1.18,.18,.37,.36,.74,.53,1.11l-.11,.06Z"/><path class="cls-1" d="M379.95,689.8c-.38,0-.76,0-1.13-.01,0-.37,0-.74,0-1.11,.37,0,.75-.01,1.12-.02,0,.38,0,.76,0,1.14Z"/></g></g></svg>